<svg width="360" height="91" viewBox="0 0 360 91" fill="none" xmlns="http://www.w3.org/2000/svg">
<g clip-path="url(#clip0_235_6308)">
<path d="M222.367 7.23936C222.628 7.23936 223.056 7.22752 223.495 7.23936C228.519 7.41688 233.507 7.12101 238.448 6.11506C241.524 5.48782 244.445 4.54104 247.023 2.69482C247.13 2.61198 247.272 2.57647 247.557 2.44629V37.8203C250.111 34.98 253.103 33.1219 256.405 31.6426C259.968 30.0449 263.674 29.0271 267.545 28.6247C269.636 28.4117 271.726 28.5419 273.804 28.9798C276.845 29.607 279.66 30.684 282.118 32.613C285.42 35.2167 287.534 38.6251 288.84 42.5424C290.396 47.1934 290.942 52.0102 290.942 56.8861C290.954 63.5609 290.919 70.2475 290.966 76.9223C290.978 78.6857 291.109 80.4609 291.417 82.1888C291.75 84.0823 292.415 85.893 293.793 87.325C294.22 87.7748 294.755 88.1061 295.36 88.5914H266.69C267.153 88.2245 267.569 87.9405 267.925 87.5972C269.268 86.3073 269.921 84.6504 270.348 82.887C271.002 80.1769 271.132 77.4075 271.144 74.6264C271.168 66.3776 271.227 58.1287 271.287 49.8799C271.298 48.1166 271.382 46.365 270.93 44.6135C269.754 39.9861 266.928 36.9564 262.225 35.8558C256.975 34.6368 252.403 35.9031 248.745 39.9624C247.878 40.9329 247.486 42.0335 247.545 43.3945C247.664 46.3177 247.605 49.2408 247.605 52.1522C247.605 60.1051 247.581 68.0581 247.605 76.011C247.605 78.0466 247.7 80.094 247.961 82.1059C248.198 83.964 248.852 85.7274 250.134 87.1712C250.586 87.6801 251.168 88.0706 251.75 88.5559H223.258C223.756 88.1416 224.231 87.7984 224.623 87.3842C225.954 85.9404 226.488 84.1652 226.868 82.2716C227.533 78.9461 227.616 75.5968 227.616 72.2357C227.616 55.3239 227.652 38.4002 227.581 21.4884C227.569 17.4764 226.571 13.6064 224.564 10.0797C223.958 9.01457 223.056 8.12696 222.319 7.19202L222.367 7.23936Z" fill="white"/>
<path d="M359.114 55.076H316.916C317.094 59.5258 318.472 63.5141 321.073 67.0409C325.076 72.473 330.598 74.8755 337.297 74.6625C343.389 74.4731 349.043 72.9227 353.793 68.8989C355.349 67.5853 356.727 66.1178 357.819 64.4136C357.891 64.2952 357.986 64.2005 358.069 64.094C358.128 64.1059 358.199 64.1295 358.259 64.1414C358.104 65.2065 357.986 66.2835 357.807 67.3486C357.071 71.5381 355.717 75.5146 353.354 79.1005C350.729 83.077 347.237 86.0356 342.819 87.941C336.655 90.6038 330.23 91.0891 323.733 89.9174C318.733 89.0062 314.327 86.6392 310.586 83.1006C306.394 79.1242 303.638 74.3192 302.13 68.8279C300.491 62.8869 300.325 56.9222 301.833 50.8746C303.508 44.1288 306.738 38.389 312.225 34.022C315.598 31.3355 319.482 29.7496 323.698 28.8383C326.631 28.2111 329.589 28.1756 332.546 28.3294C337.475 28.578 342.213 29.6668 346.62 31.9272C351.905 34.6492 355.515 38.8387 357.368 44.472C358.437 47.7503 359.185 52.4368 359.102 55.0641L359.114 55.076ZM339.553 52.6143C339.553 52.283 339.553 52.0463 339.553 51.8096C339.517 48.3065 338.959 44.8626 338.211 41.466C337.712 39.2174 336.917 37.0398 335.646 35.0752C333.829 32.2586 331.346 30.5189 327.855 30.7911C325.372 30.9804 323.413 32.2941 321.809 34.1403C319.41 36.9215 318.092 40.2352 317.427 43.7383C316.928 46.4011 316.904 49.1468 316.631 51.8569C316.572 52.4605 316.75 52.6025 317.356 52.6025C324.149 52.5907 330.943 52.6025 337.736 52.6025C338.318 52.6025 338.912 52.6025 339.565 52.6025L339.553 52.6143Z" fill="white"/>
<path d="M216.357 64.3775C216.167 65.8095 216.084 67.2533 215.787 68.6616C214.504 74.5672 212.022 79.8573 207.402 83.964C204.397 86.6268 200.894 88.3073 197.01 89.3488C192.105 90.6624 187.129 90.9346 182.2 89.8577C177.259 88.7689 172.936 86.2954 169.231 82.816C165.727 79.5378 162.995 75.7033 161.273 71.2416C159.147 65.7503 158.352 60.1051 159.361 54.2114C159.777 51.809 160.276 49.4302 161.155 47.1816C162.58 43.5246 164.622 40.2109 167.402 37.3706C170.109 34.6013 173.209 32.3882 176.784 30.9325C182.509 28.6129 188.483 27.6424 194.623 28.5892C200.858 29.5478 206.357 32.0923 210.632 36.8854C213.578 40.1873 215.419 43.998 215.882 48.4124C216.298 52.4244 214.184 56.0695 210.846 57.4896C204.148 60.3418 198.637 54.6611 198.162 49.8089C197.913 47.2289 197.711 44.6253 197.248 42.069C196.701 39.0748 195.62 36.2581 193.578 33.903C191.25 31.2402 188.352 30.3999 184.908 31.181C181.559 31.9384 179.088 33.8675 177.271 36.696C174.67 40.7435 173.661 45.1933 173.922 49.9509C174.444 59.4424 178.91 66.6142 186.95 71.6203C189.148 72.9932 191.606 73.6322 194.171 74.0701C197.687 74.6618 201.131 74.4843 204.516 73.6322C209.314 72.4251 213.103 69.7504 215.621 65.4426C215.822 65.0875 215.965 64.7088 216.131 64.3301C216.214 64.342 216.298 64.3656 216.369 64.3775H216.357Z" fill="white"/>
<path d="M86.0117 7.23924C87.9001 7.23924 89.9666 7.25108 92.0332 7.23924C95.4061 7.21557 98.7197 6.75402 102.021 6.11494C105.133 5.51137 108.078 4.55276 110.656 2.67103C110.751 2.60002 110.869 2.56452 111.095 2.45801C111.119 2.77755 111.143 3.02608 111.143 3.28644C111.143 16.0206 111.166 28.7666 111.178 41.5008C111.178 52.7201 111.154 63.9395 111.202 75.1588C111.202 77.5376 111.344 79.9164 111.641 82.2715C111.867 84.0467 112.508 85.7509 113.744 87.1356C114.207 87.6563 114.801 88.0705 115.394 88.5794H86.9737C87.0094 88.5084 87.0212 88.4256 87.0687 88.3901C88.874 87.2658 89.7647 85.5379 90.3823 83.597C91.3087 80.6738 91.4631 77.6678 91.4631 74.6499C91.4631 57.0517 91.4631 39.4534 91.4631 21.8551C91.4631 17.6775 90.4061 13.7483 88.3039 10.1388C87.6744 9.06179 86.7599 8.15052 86.0117 7.22741V7.23924Z" fill="white"/>
<path d="M122.615 29.8907C124.492 29.9499 126.357 30.08 128.209 30.0682C132.96 30.0209 137.687 29.654 142.236 28.1983C143.649 27.7486 144.979 26.9912 146.333 26.3639C146.82 26.1391 147.259 25.8432 147.865 25.5C147.865 25.855 147.865 26.0562 147.865 26.2574C147.877 43.5361 147.865 60.8267 147.924 78.1054C147.924 80.8984 148.518 83.6322 149.932 86.082C150.49 87.0406 151.392 87.7981 152.093 88.6028H123.851C123.851 88.6028 123.851 88.4963 123.862 88.4845C126.653 86.7329 127.473 83.8926 127.829 80.9339C128.138 78.3776 128.174 75.7976 128.186 73.2177C128.221 63.6434 128.197 54.0691 128.186 44.4948C128.186 40.3644 127.224 36.4826 125.204 32.8612C124.623 31.8197 123.957 30.8611 122.912 30.2102C122.782 30.1274 122.687 29.9854 122.604 29.8907H122.615Z" fill="white"/>
<path d="M137.473 0.138289C142.449 -0.0629018 148.459 4.45797 148.34 11.2629C148.245 17.1921 143.316 22.1627 137.081 22.0207C131.071 21.8787 126.487 16.7424 126.475 10.9789C126.463 4.88402 132.14 -0.15758 137.473 0.150123V0.138289Z" fill="white"/>
<path d="M340.598 27.3032C336.881 24.2735 333.294 21.3503 329.684 18.4153C326.216 21.3029 322.783 24.1669 319.28 27.0901C319.232 26.8534 319.173 26.6996 319.173 26.5576C319.173 24.1551 319.173 21.7527 319.173 19.3502C319.173 18.6993 319.399 18.2614 319.921 17.859C322.926 15.5039 325.895 13.1015 328.876 10.7227C329.719 10.0481 329.731 10.0718 330.563 10.7227C333.591 13.0896 336.596 15.4684 339.648 17.8117C340.456 18.4271 340.848 19.1135 340.8 20.1668C340.693 22.2971 340.729 24.4273 340.705 26.5694C340.705 26.7351 340.67 26.9008 340.61 27.3032H340.598Z" fill="#7694FF"/>
<path d="M54.7642 26.8738C50.3224 30.8266 48.7547 37.1937 50.8568 42.7324C52.959 48.2592 58.1728 51.8688 64.1348 51.9161H64.2892C66.6883 51.9161 68.8617 51.4782 70.7501 50.6143L70.8095 50.5906C70.8689 50.567 70.9401 50.5314 70.9995 50.4959L71.1895 50.4013C71.2489 50.3658 71.3202 50.3303 71.3796 50.3066C76.249 47.7858 78.7312 42.9809 78.7668 36.0457C78.7906 30.5781 77.0566 26.2939 76.0114 24.1992H75.9996L75.1444 22.6606C72.3059 17.4889 67.9947 13.2994 62.3177 10.2223C60.8807 9.44124 59.3961 8.75482 57.8996 8.16309C58.731 8.75482 59.503 9.44124 60.2274 10.2223C63.2679 13.5124 63.5885 17.7611 61.0469 21.3233C60.3937 22.2346 59.5624 23.1222 58.4935 24.0216C57.8759 24.5424 57.2345 25.0039 56.6288 25.4418C55.9638 25.927 55.3343 26.3767 54.7761 26.8738H54.7642Z" fill="#FF77E6"/>
<path d="M34.8947 6.47061C28.2439 7.77243 22.1512 10.6364 16.7711 14.968C9.94202 20.4948 5.21514 27.4773 2.72105 35.7379C0.179463 44.1643 0.286353 53.0285 3.01797 62.0702C5.8446 71.4315 11.1534 78.8282 18.802 84.0473C23.7189 87.4084 29.3484 89.444 35.5242 90.0949C37.0325 90.2606 38.5765 90.3316 40.1323 90.3316C42.662 90.3316 45.2868 90.1186 47.9352 89.6925C53.2085 88.8404 57.7928 87.1954 61.9259 84.6627C67.1872 81.4319 71.3321 77.2068 74.4676 71.8339C72.7098 72.97 70.7621 73.9523 68.6005 74.7926C63.7905 76.6506 58.8736 77.5856 53.9923 77.5856C49.5505 77.5856 45.0611 76.8163 40.6193 75.2778C32.6026 72.5203 26.4149 67.526 22.1987 60.437C19.4195 55.7505 17.7924 50.4248 17.3649 44.6021C16.8542 37.5368 17.6381 31.2881 19.7521 25.489C21.8424 19.7492 25.1916 15.0863 29.7166 11.6306C34.1821 8.21032 39.3128 6.18658 45.0136 5.59484C44.6454 5.59484 44.2654 5.58301 43.8972 5.58301C40.9993 5.58301 37.9708 5.89071 34.8947 6.49428V6.47061Z" fill="white"/>
</g>
<defs>
<clipPath id="clip0_235_6308">
<rect width="360" height="90.5882" fill="white"/>
</clipPath>
</defs>
</svg>
